<?xml version="1.0" encoding="UTF-8" standalone="no"?>
<!DOCTYPE svg PUBLIC "-//W3C//DTD SVG 1.1//EN" "http://www.w3.org/Graphics/SVG/1.1/DTD/svg11.dtd">
<svg width="100%" height="100%" viewBox="0 0 243 67" version="1.1" xmlns="http://www.w3.org/2000/svg" xmlns:xlink="http://www.w3.org/1999/xlink" xml:space="preserve" xmlns:serif="http://www.serif.com/" style="fill-rule:evenodd;clip-rule:evenodd;stroke-linejoin:round;stroke-miterlimit:2;">
    <g transform="matrix(1,0,0,1,-365.749,-761.801)">
        <g transform="matrix(0.405127,0,0,0.405127,311.453,490.987)">
            <path d="M184.247,763.205L134.021,763.205L134.021,738.521L184.247,738.521L184.247,713.837L163.538,713.837L163.538,689.154L184.247,689.154L184.247,668.466L208.93,668.466L208.93,689.154L408.492,689.154C416.267,685.971 424.776,684.217 433.692,684.217C442.608,684.217 451.117,685.971 458.893,689.154L658.135,689.154L658.135,668.466L682.819,668.466L682.819,689.154L703.528,689.154L703.528,713.837L682.819,713.837L682.819,738.521L733.044,738.521L733.044,763.205L682.819,763.205L682.819,787.888L703.528,787.888L703.528,812.572L682.819,812.572L682.819,833.259L658.135,833.259L658.135,812.572L458.893,812.572C451.117,815.754 442.608,817.509 433.692,817.509C424.776,817.509 416.267,815.754 408.492,812.572L208.93,812.572L208.93,833.259L184.247,833.259L184.247,812.572L163.538,812.572L163.538,787.888L184.247,787.888L184.247,763.205ZM208.93,713.837L208.93,738.521L368.189,738.521C369.876,729.528 373.371,721.169 378.283,713.837L208.93,713.837ZM453.44,713.836C447.553,710.687 440.83,708.901 433.692,708.901C410.533,708.901 391.73,727.703 391.73,750.863C391.73,774.022 410.533,792.825 433.692,792.825C440.83,792.825 447.553,791.038 453.44,787.889C466.655,780.821 475.654,766.885 475.654,750.863C475.654,734.841 466.655,720.905 453.44,713.836ZM378.283,787.888C373.371,780.556 369.876,772.198 368.189,763.205L208.93,763.205L208.93,787.888L378.283,787.888ZM658.135,713.837L489.101,713.836C494.013,721.168 497.509,729.528 499.195,738.521L658.135,738.521L658.135,713.837ZM658.135,787.888L658.135,763.205L499.195,763.205C497.509,772.198 494.013,780.557 489.101,787.889L658.135,787.888ZM433.692,731.116C444.591,731.116 453.439,739.964 453.439,750.863C453.439,761.761 444.591,770.61 433.692,770.61C422.793,770.61 413.945,761.761 413.945,750.863C413.945,739.964 422.793,731.116 433.692,731.116Z" style="fill:rgb(35,31,32);"/>
        </g>
    </g>
</svg>
